/* XPM */
static char *iconjvoice__[] = {
/* columns rows colors chars-per-pixel */
"16 16 56 1",
"  c #10458C",
". c #11468D",
"X c #12478E",
"o c #13488F",
"O c #144990",
"+ c #154A91",
"@ c #174C93",
"# c #184D94",
"$ c #194E95",
"% c #1A4E94",
"& c #1B4F95",
"* c #1B5097",
"= c #1C5198",
"- c #1D5299",
"; c #1F549B",
": c #205397",
"> c #20559C",
", c #21569D",
"< c #23579D",
"1 c #23589F",
"2 c #2459A0",
"3 c #255AA1",
"4 c #265BA2",
"5 c #275CA3",
"6 c #285DA4",
"7 c #3565A5",
"8 c #406CA8",
"9 c #426EAA",
"0 c #4771AA",
"q c #4A73AB",
"w c #4A74AD",
"e c #567EB4",
"r c #597FB3",
"t c #6286B7",
"y c #6287B8",
"u c #8AA5C9",
"i c #98AFCF",
"p c #A8BCD7",
"a c #ACBFD9",
"s c #B8C9DE",
"d c #B9C9DF",
"f c #C0CEE2",
"g c #C2D0E3",
"h c #C8D5E6",
"j c #C9D5E6",
"k c #C9D6E7",
"l c #E7ECF4",
"z c #ECF1F7",
"x c #EDF1F7",
"c c #F6F8FB",
"v c #FBFCFD",
"b c #FCFDFE",
"n c #FDFEFE",
"m c #FEFEFF",
"M c #FFFFFF",
"N c None",
/* pixels */
"==>>>2225566NNNN",
"*NNNNNNNNNNNNNNN",
"$NN=;>>222556NNN",
"$N=8de>>222556NN",
"@N$lMz7>>22226NN",
"@N@hMMy;>>2226NN",
"oN@0Mf$=>>>222NN",
"XN@@uMt==>>>22NN",
"XNo@#scr=91>>2NN",
"XNoo@:fvpMk7>>NN",
".NXoo@#iMMMp>>NN",
"XN.Xoo@@qhzw=>NN",
"NNXXXXoo@#$===NN",
"NNN  Xo@@@$$=NNN",
"NNNN XXNNNNNNNNN",
"NNNN XNNNNNNNNNN"
};
