/* XPM */
static char *iconjvoice__[] = {
/* columns rows colors chars-per-pixel */
"64 64 152 2",
"   c #0B2F61",
".  c #0C3165",
"X  c #113B76",
"o  c #133E79",
"O  c #16417C",
"+  c #3F4472",
"@  c #394579",
"#  c #3B497D",
"$  c #154484",
"%  c #194786",
"&  c #1B4987",
"*  c #1A498A",
"=  c #1D4E90",
"-  c #1E5194",
";  c #204F8F",
":  c #364A83",
">  c #3A4E87",
",  c #374E88",
"<  c #3F5187",
"1  c #235292",
"2  c #295696",
"3  c #22569C",
"4  c #285798",
"5  c #24589E",
"6  c #2B5A9B",
"7  c #3E5790",
"8  c #3F5B96",
"9  c #3B5B98",
"0  c #265BA2",
"q  c #295EA5",
"w  c #2C60A6",
"e  c #2E63AA",
"r  c #3262A4",
"t  c #3166AD",
"y  c #3368AF",
"u  c #396AAD",
"i  c #356AB1",
"p  c #3A6EB4",
"a  c #3D70B7",
"s  c #3E72B9",
"d  c #425387",
"f  c #485484",
"g  c #45578B",
"h  c #485B8F",
"j  c #525983",
"k  c #425C96",
"l  c #495E93",
"z  c #42619E",
"x  c #5B6691",
"c  c #5F6E9B",
"v  c #626487",
"b  c #606388",
"n  c #67688B",
"m  c #636A90",
"M  c #797997",
"N  c #7C7D9B",
"B  c #4263A1",
"V  c #4A68A1",
"C  c #426EAF",
"Z  c #4B6DAB",
"A  c #416DB1",
"S  c #4473B5",
"D  c #4B77B5",
"F  c #4E79B3",
"G  c #4175BB",
"H  c #4B76B9",
"J  c #4578BF",
"K  c #4B7BBC",
"L  c #537DB6",
"P  c #547FB8",
"I  c #467AC1",
"U  c #4A7DC3",
"Y  c #5681BA",
"T  c #5A84BD",
"R  c #788AB2",
"E  c #4C80C7",
"W  c #4D82C9",
"Q  c #5382C1",
"!  c #5C87C1",
"~  c #5E89C2",
"^  c #5186CD",
"/  c #5388CF",
"(  c #5D8CCC",
")  c #558AD1",
"_  c #598ED5",
"`  c #5B90D7",
"'  c #628CC5",
"]  c #658FC8",
"[  c #6690C9",
"{  c #6D95CD",
"}  c #769BCE",
"|  c #789CCE",
" . c #6392D1",
".. c #6895D1",
"X. c #6E98D1",
"o. c #6396D9",
"O. c #6D9CDB",
"+. c #719AD2",
"@. c #7EA1D0",
"#. c #7CA5DE",
"$. c #82829E",
"%. c #8686A1",
"&. c #8A8AA5",
"*. c #8F8FA8",
"=. c #9494AC",
"-. c #959AB5",
";. c #9A9AB1",
":. c #A3A3B7",
">. c #A7A7BB",
",. c #AAAABD",
"<. c #87A1CB",
"1. c #83A8D9",
"2. c #8CAEDD",
"3. c #90ADD6",
"4. c #94B4DF",
"5. c #B5B5C6",
"6. c #BBBBCB",
"7. c #A3B4D2",
"8. c #ABB7D1",
"9. c #A7BBDA",
"0. c #A9BDDB",
"q. c #ADC0DD",
"w. c #BFC3D4",
"e. c #AEC6E6",
"r. c #B4C7E4",
"t. c #B5CBE9",
"y. c #C0C0CE",
"u. c #C5C6D3",
"i. c #C4CCDE",
"p. c #CFCFDA",
"a. c #CED1DF",
"s. c #D2D2DD",
"d. c #C1CCE1",
"f. c #C6D2E6",
"g. c #CBD3E3",
"h. c #C3D3EA",
"j. c #C9D6E9",
"k. c #CBDAEE",
"l. c #D7D7E0",
"z. c #D5D8E3",
"x. c #DADBE3",
"c. c #D2DBEC",
"v. c #D9DFEB",
"b. c #DBE1ED",
"n. c #E1E1E7",
"m. c #E4E5EC",
"M. c #E9E9EE",
"N. c #ECEDF1",
"B. c #F3F4F6",
"V. c #F6F6F8",
"C. c #FEFEFE",
"Z. c None",
/* pixels */
"Z.Z.Z.Z.Z.Z.Z.L P P P Y Y Y Y Y Y Y Y Q T T T T T T T T T T T T T ~ T ! ~ T ~ ~ ~ ! Z.Z.Z.Z.Z.Z.Z.Z.Z.Z.Z.Z.Z.Z.Z.Z.Z.Z.Z.Z.Z.Z.",
"Z.Z.Z.Z.Z.Z.L L L Y P P Y L Y Y Y Y Y Y Y Y Y Y T T T T T T ! T T T ! T T ~ ~ T ! ! ! Z.Z.Z.Z.Z.Z.Z.Z.Z.Z.Z.Z.Z.Z.Z.Z.Z.Z.Z.Z.Z.",
"Z.Z.Z.Z.Z.F F u w q q w q w w w w e e w t e e e e t t e y t y y y y y i y y i y u D T T Z.Z.Z.Z.Z.Z.Z.Z.Z.Z.Z.Z.Z.Z.Z.Z.Z.Z.Z.Z.",
"Z.Z.Z.Z.Z.F w q q q q q q w w w e w e e e e e t e e t t e y e e y y e y y y y i y y a Y Z.Z.Z.Z.Z.Z.Z.Z.Z.Z.Z.Z.Z.Z.Z.Z.Z.Z.Z.Z.",
"Z.Z.Z.Z.Z.u 0 q 0 q q q w w q w w w w e e e e e e t e t t t y y t t t t t y y i i y i S Z.Z.Z.Z.Z.Z.Z.Z.Z.Z.Z.Z.Z.Z.Z.Z.Z.Z.Z.Z.",
"Z.Z.Z.Z.Z.0 q 0 q q 0 q q q w q w w w e e e e e e e e e t e e y t t y y t y y t y i y y Z.Z.Z.Z.Z.Z.Z.Z.Z.Z.Z.Z.Z.Z.Z.Z.Z.Z.Z.Z.",
"Z.Z.Z.Z.Z.0 0 q 0 w 0 q q S Q ~ ~ ~ ~ ~ ~ ~ ~ ~ ' ' ~ ' ' ' ' ' ' ] ' ] [ ] ] [ [ [ [ [ [ [ [ [ Z.Z.Z.Z.Z.Z.Z.Z.Z.Z.Z.Z.Z.Z.Z.Z.",
"Z.Z.Z.Z.Z.0 0 0 0 0 q w K ~ ~ ~ ~ ~ ' ' ~ ' ~ ( ' ' ' ' ' ' ] ' ] ' ] ] ' ] ] ] [ [ [ [ [ [ [ [ [ [ Z.Z.Z.Z.Z.Z.Z.Z.Z.Z.Z.Z.Z.Z.",
"Z.Z.Z.Z.Z.0 0 0 0 0 0 a T D a y i i p p p p p p p p p p p s s p s a a a s s s s s s s s s I s I Q ] Z.Z.Z.Z.Z.Z.Z.Z.Z.Z.Z.Z.Z.Z.",
"Z.Z.Z.Z.Z.0 0 0 0 0 w F a y y y i i i i i i i p p p p p p p p p a a s s s s s s s s s s s I s I s E ~ Z.Z.Z.Z.Z.Z.Z.Z.Z.Z.Z.Z.Z.",
"Z.Z.Z.Z.Z.0 0 5 0 0 5 D y i i y i i i i i i p p i i p p p p a a p p s s a s s a s s s I s s s s J s Q Z.Z.Z.Z.Z.Z.Z.Z.Z.Z.Z.Z.Z.",
"Z.Z.Z.Z.Z.5 0 0 0 0 1 p y y y i i i i i p i i i i s p p p p a p p s p p a a s s s s s s s s J s s s J Z.Z.Z.Z.Z.Z.Z.Z.Z.Z.Z.Z.Z.",
"Z.Z.Z.Z.Z.5 0 5 5 3 * t y y y i y i i i i i i i p s i p p p p p p s s a a a s s s s s s s s J s s s s Z.Z.Z.Z.Z.Z.Z.Z.Z.Z.Z.Z.Z.",
"Z.Z.Z.Z.Z.5 5 0 5 - = i y t y y i y i K ' { { { ` o.{ ..{ { X.X...o.{ +.X.X.+.+...O.+.+.+.+.+.+.#.X.@.#.#.#.#.#.Z.Z.Z.Z.Z.Z.Z.Z.",
"Z.Z.Z.Z.Z.5 5 5 5 * * t y t t y i y ~ { { { { { { { { { { { { { X.{ X.{ X.{ +.{ O.+.{ } +.+.+.+.+.O...#.#.#.#.#.#.#.Z.Z.Z.Z.Z.Z.",
"Z.Z.Z.Z.Z.5 5 5 - * * t t y t t i F [ Q U J J J U J U U U U U U E U E U E E E E E E E E W W E E E W W _ ` ` ` o.O.#.Z.Z.Z.Z.Z.Z.",
"Z.Z.Z.Z.Z.3 0 - * * * t t t y y e ~ K J J J J J J U J J U K K U U U U U U P U U U U ^ U ^ U ^ U Q E ^ ` ` _ ` ` ` o.O.Z.Z.Z.Z.Z.",
"Z.Z.Z.Z.Z.3 0 = * * * e t t t y w Q J J J J J K J J J U U U U U U U U U U U U U ( U U U U U U ^ E W Q ` _ ` _ ` ` ` ..Z.Z.Z.Z.Z.",
"Z.Z.Z.Z.Z.5 - * % * * t t t t e 6 K G J J J J J J J A : @ > J J U U U U U U U P U U U ^ U Q U Q E W ^ _ ` _ ` _ ` ` _ Z.Z.Z.Z.Z.",
"Z.Z.Z.Z.Z.- * * * % * e t e t 0 2 J J G J G J J J 8 j %.;.N f J U U U U U U U U U U U U U ^ U ^ E E ) _ _ ` _ ` _ ` _ Z.Z.Z.Z.Z.",
"Z.Z.Z.Z.Z.- * * * % * e e t w 4 2 G G G G G J J < M 6.n.M.l.=.l U U U U U U U U U U U U U Q U U E E ) _ _ _ ` _ ` _ ) Z.Z.Z.Z.Z.",
"Z.Z.Z.Z.Z.= * $ % % % t t e 6 4 6 G G J J S J d *.s.B.C.C.C.x.&.V U I I U U U U U U U U U U ^ U W Q _ _ _ _ _ _ _ ` ) Z.Z.Z.Z.Z.",
"Z.Z.Z.Z.Z.* $ $ % % & e e w 1 4 2 G G G G J S &.x.V.C.C.C.C.C.p.M Z I U U U U U U U U U U ^ U ^ E / _ _ _ _ _ ` ` _ ( Z.Z.Z.Z.Z.",
"Z.Z.Z.Z.Z.$ $ * % % & e e 5 2 1 2 G G J G G D 6.C.C.C.C.C.C.C.V.6.n H U U U U U U U U U U U U U E ) ) _ _ _ _ _ _ ` _ Z.Z.Z.Z.Z.",
"Z.Z.Z.Z.Z.$ $ * $ $ * e w 1 2 2 2 G G S G G P u.C.C.C.C.C.C.C.C.N.>.V I U U U H U U U K U U U Q W ) _ ) _ _ _ _ _ _ _ Z.Z.Z.Z.Z.",
"Z.Z.Z.Z.Z.* $ $ % * * w 5 1 2 1 2 G G G G G J u.V.C.C.C.C.C.C.C.V.a.R I U I I U U U U U U U U U ^ _ ) _ _ _ _ _ _ _ ) Z.Z.Z.Z.Z.",
"Z.Z.Z.Z.Z.$ $ $ $ * $ q 1 4 1 1 2 s G G G G G 7.N.C.C.C.C.C.C.C.C.x.<.I I I I U U J U U U U U U _ _ ) _ ) _ ) _ _ _ ) Z.Z.Z.Z.Z.",
"Z.Z.Z.Z.Z.$ $ $ $ $ $ 4 1 1 4 4 2 G G A G G G [ a.C.C.C.C.C.C.C.B.d.' I I H I U U U K U U U U / ) ) _ ) ) _ _ _ _ _ ) Z.Z.Z.Z.Z.",
"Z.Z.Z.Z.Z.$ $ $ $ $ $ 1 1 1 1 1 2 a G s G G G G 9.m.C.C.C.C.C.m.f.{ I G I I I U U J U U U U U ) ) ) ) _ ) _ _ _ ) _ ) Z.Z.Z.Z.Z.",
"Z.Z.Z.Z.Z.$ $ $ $ * $ 1 1 1 1 4 2 s s s G p G G Q i.B.C.C.C.V.w.! I H I H I H I J U U J U U W ) ) ) ) ) _ ) ) _ _ _ ) Z.Z.Z.Z.Z.",
"Z.Z.Z.Z.Z.$ $ $ $ $ $ 1 1 1 1 1 1 s s S G s G G G @.z.C.C.C.V.5.V I I I I I I I U J I U U U ) ) ) ) ) ) ) _ ) _ _ _ ( Z.Z.Z.Z.Z.",
"Z.Z.Z.Z.Z.$ $ $ $ $ $ 1 1 1 1 1 2 A s s A G s G G G 0.M.C.C.C.s.N A H I H I H I J J U I I ) ^ ) ) ) ) ) ) ) _ ) ) _ ) Z.Z.Z.Z.Z.",
"Z.Z.Z.Z.Z.$ $ $ $ $ $ 1 1 1 1 1 2 A p G s a s G s G Q i.V.C.C.B.6.x G I H G I I J U J U W / ^ ) ) ) ) ) ) ) ) ) _ ) ) Z.Z.Z.Z.Z.",
"Z.Z.Z.Z.Z.$ $ $ $ $ $ 1 ; ; 1 1 2 p G p p G s A S s G { g.V.C.C.M.:.g I I I I H J J K E / / / / ^ ) ) ) ) ) ) ) ) _ ) Z.Z.Z.Z.Z.",
"Z.Z.Z.Z.Z.$ o $ $ $ $ = 1 1 1 1 1 p a s G p G G s s s G 3.x.C.C.C.x.*.k H I G I J J J ^ / / / / ) ^ ) ) ) ) ) ) ) _ ) Z.Z.Z.Z.Z.",
"Z.Z.Z.Z.Z.O $ $ O $ $ 1 ; ; 1 ; 1 s s A p G p G s G s S J q.m.C.C.V.l.%.k G G I J J ^ / / / / / ^ ) ) ^ ) ) ) ) ) ) ) Z.Z.Z.Z.Z.",
"Z.Z.Z.Z.Z.o $ $ $ $ o = ; ; 1 1 1 p p s s s a p s S s s G P r.N.C.C.V.p.$.7 I I J W / / W / / / ) ) ) ) ) ) ) ) _ ) / Z.Z.Z.Z.Z.",
"Z.Z.Z.Z.Z.. O $ $ $ $ = 1 = ; 1 1 S p p A p a G p G p G G s ' g.B.C.C.V.p.%.d G E / W W > + # H ) W W ) W ) / ) / ) / Z.Z.Z.Z.Z.",
"Z.Z.Z.Z.Z.Z.  X $ $ $ * ; 1 1 ; 1 p S p G p p s a a G G S s G [ g.B.C.C.V.l.=.j A / / l %.,.=.v z ) ^ ) ) ) ^ ) ) ) / Z.Z.Z.Z.Z.",
"Z.Z.Z.Z.Z.Z.Z.    . . = 1 1 * ; 1 p a p p a a a a a S p s G G s | g.V.C.C.V.x.5.n k Z &.x.B.M.y.N g W ) ) ) ) ) ) ) / Z.Z.Z.Z.Z.",
"Z.Z.Z.Z.Z.Z.Z.Z.Z.Z.Z.; ; ; ; 1 1 p p p A p S a s s p p a s G S G | g.B.C.C.C.N.u.=.=.p.C.C.C.V.s.=.j J ) ) ^ / / ) / Z.Z.Z.Z.Z.",
"Z.Z.Z.Z.Z.Z.Z.Z.Z.Z.Z.; ; ; 1 1 1 p p p p p p a p s s s a a s G G G { f.N.C.C.C.V.m.n.V.C.C.C.C.C.n.>.b H W ) ) ) / / Z.Z.Z.Z.Z.",
"Z.Z.Z.Z.Z.Z.Z.Z.Z.Z.Z.; ; ; ; * 1 p A p a A p p s s p s s s s s G J U ..t.m.C.C.C.C.C.C.C.C.C.C.C.C.N.5.c ^ / / / ) / Z.Z.Z.Z.Z.",
"Z.Z.Z.Z.Z.Z.Z.Z.Z.Z.Z.% ; ; ; 1 1 p p p p p p a p s p p s s p G I W U W ( e.k.V.C.C.C.C.C.C.C.C.C.C.C.n.-.) / ) ^ ) ^ Z.Z.Z.Z.Z.",
"Z.Z.Z.Z.Z.Z.Z.Z.Z.Z.Z.Z.& ; ; ; ; p p p p p p p p s s p p I I I U U W E E W #.h.m.C.C.C.C.C.C.C.C.C.C.N.8./ / ) / / / Z.Z.Z.Z.Z.",
"Z.Z.Z.Z.Z.Z.Z.Z.Z.Z.Z.Z.X O ; ; 1 u p p p p p p p i p I I I W W U W U W E U W ) e.c.N.C.C.C.C.C.C.C.C.z.2./ / W / / ^ Z.Z.Z.Z.Z.",
"Z.Z.Z.Z.Z.Z.Z.Z.Z.Z.Z.Z.Z.Z.X X o p p p p p p S I I I I I W I I U U W U E E W W E #.h.b.V.C.C.C.C.C.m.r./ W W / / / ^ Z.Z.Z.Z.Z.",
"Z.Z.Z.Z.Z.Z.Z.Z.Z.Z.Z.Z.Z.Z.Z.Z.Z.p p p s G I I I I W I I I W I U U U E U W I W W E Q 4.k.b.V.C.C.m.h.( / W / / W / ^ Z.Z.Z.Z.Z.",
"Z.Z.Z.Z.Z.Z.Z.Z.Z.Z.Z.Z.Z.Z.Z.Z.Z.I I G I I I I I I I U W I I I I W I W U E W U E E E E ( 4.k.c.c.t. .W W / W W ) W W Z.Z.Z.Z.Z.",
"Z.Z.Z.Z.Z.Z.Z.Z.Z.Z.Z.Z.Z.Z.Z.Z.Z.I J I I I I I I I I I I I I W I I W I U U U W E E E W W E W ` ( W ^ W / W ^ ) W ) ^ Z.Z.Z.Z.Z.",
"Z.Z.Z.Z.Z.Z.Z.Z.Z.Z.Z.Z.Z.Z.Z.Z.Z.s J I I I I I I I I I I I I I W I I W W I U W E E E W E W W W W ^ W ^ W / W / ) ) I Z.Z.Z.Z.Z.",
"Z.Z.Z.Z.Z.Z.Z.Z.Z.Z.Z.Z.Z.Z.Z.Z.Z.6 J J G I G I I I I I I I W I I I W I I W U W U E E E E W W W W W W W W W / W W W r Z.Z.Z.Z.Z.",
"Z.Z.Z.Z.Z.Z.Z.Z.Z.Z.Z.Z.Z.Z.Z.Z.Z.O p J s I J J I I I I I I I I W I W I U U U U E E E W W W W W W W W W W / W / W S Z.Z.Z.Z.Z.Z.",
"Z.Z.Z.Z.Z.Z.Z.Z.Z.Z.Z.Z.Z.Z.Z.Z.Z.Z.o 6 s J I J I I I I I I I I I I I I U U U U I E I W U W U W W W W W W W W U r o Z.Z.Z.Z.Z.Z.",
"Z.Z.Z.Z.Z.Z.Z.Z.Z.Z.Z.Z.Z.Z.Z.Z.Z.Z.Z.X X O O % I I I I I I I I I I I s $ X X X X o X X X X X X X X $ O O O o X X Z.Z.Z.Z.Z.Z.Z.",
"Z.Z.Z.Z.Z.Z.Z.Z.Z.Z.Z.Z.Z.Z.Z.Z.Z.Z.Z.Z.Z.Z.Z.Z.I s I I I I I I I I e $ Z.Z.Z.Z.Z.Z.Z.Z.Z.Z.Z.Z.Z.Z.Z.Z.Z.Z.Z.Z.Z.Z.Z.Z.Z.Z.Z.Z.",
"Z.Z.Z.Z.Z.Z.Z.Z.Z.Z.Z.Z.Z.Z.Z.Z.Z.Z.Z.Z.Z.Z.Z.Z.s I I s I I I I I - o Z.Z.Z.Z.Z.Z.Z.Z.Z.Z.Z.Z.Z.Z.Z.Z.Z.Z.Z.Z.Z.Z.Z.Z.Z.Z.Z.Z.Z.",
"Z.Z.Z.Z.Z.Z.Z.Z.Z.Z.Z.Z.Z.Z.Z.Z.Z.Z.Z.Z.Z.Z.Z.Z.I I I I J J I G - Z.Z.Z.Z.Z.Z.Z.Z.Z.Z.Z.Z.Z.Z.Z.Z.Z.Z.Z.Z.Z.Z.Z.Z.Z.Z.Z.Z.Z.Z.Z.",
"Z.Z.Z.Z.Z.Z.Z.Z.Z.Z.Z.Z.Z.Z.Z.Z.Z.Z.Z.Z.Z.Z.Z.Z.I G J I I J G % Z.Z.Z.Z.Z.Z.Z.Z.Z.Z.Z.Z.Z.Z.Z.Z.Z.Z.Z.Z.Z.Z.Z.Z.Z.Z.Z.Z.Z.Z.Z.Z.",
"Z.Z.Z.Z.Z.Z.Z.Z.Z.Z.Z.Z.Z.Z.Z.Z.Z.Z.Z.Z.Z.Z.Z.Z.I I J J I i O Z.Z.Z.Z.Z.Z.Z.Z.Z.Z.Z.Z.Z.Z.Z.Z.Z.Z.Z.Z.Z.Z.Z.Z.Z.Z.Z.Z.Z.Z.Z.Z.Z.",
"Z.Z.Z.Z.Z.Z.Z.Z.Z.Z.Z.Z.Z.Z.Z.Z.Z.Z.Z.Z.Z.Z.Z.Z.s I I s t o Z.Z.Z.Z.Z.Z.Z.Z.Z.Z.Z.Z.Z.Z.Z.Z.Z.Z.Z.Z.Z.Z.Z.Z.Z.Z.Z.Z.Z.Z.Z.Z.Z.Z.",
"Z.Z.Z.Z.Z.Z.Z.Z.Z.Z.Z.Z.Z.Z.Z.Z.Z.Z.Z.Z.Z.Z.Z.Z.I s I w o Z.Z.Z.Z.Z.Z.Z.Z.Z.Z.Z.Z.Z.Z.Z.Z.Z.Z.Z.Z.Z.Z.Z.Z.Z.Z.Z.Z.Z.Z.Z.Z.Z.Z.Z.",
"Z.Z.Z.Z.Z.Z.Z.Z.Z.Z.Z.Z.Z.Z.Z.Z.Z.Z.Z.Z.Z.Z.Z.Z.p G 3 X Z.Z.Z.Z.Z.Z.Z.Z.Z.Z.Z.Z.Z.Z.Z.Z.Z.Z.Z.Z.Z.Z.Z.Z.Z.Z.Z.Z.Z.Z.Z.Z.Z.Z.Z.Z.",
"Z.Z.Z.Z.Z.Z.Z.Z.Z.Z.Z.Z.Z.Z.Z.Z.Z.Z.Z.Z.Z.Z.Z.Z.X O Z.Z.Z.Z.Z.Z.Z.Z.Z.Z.Z.Z.Z.Z.Z.Z.Z.Z.Z.Z.Z.Z.Z.Z.Z.Z.Z.Z.Z.Z.Z.Z.Z.Z.Z.Z.Z.Z."
};
