/* XPM */
static char *iconjvoice__[] = {
/* columns rows colors chars-per-pixel */
"32 32 115 2",
"   c #265BA2",
".  c #285DA4",
"X  c #2D60A7",
"o  c #2E61A7",
"O  c #3366AC",
"+  c #3467AD",
"@  c #3467AE",
"#  c #3368AF",
"$  c #3568AE",
"%  c #3669AF",
"&  c #3469B0",
"*  c #376AB0",
"=  c #376CB3",
"-  c #386BB1",
";  c #396CB2",
":  c #3A6DB3",
">  c #386DB4",
",  c #3A6EB4",
"<  c #3B6EB4",
"1  c #3C6FB5",
"2  c #3D70B6",
"3  c #3E71B7",
"4  c #3C71B8",
"5  c #3E71B8",
"6  c #3F72B8",
"7  c #3E73BA",
"8  c #3F74BB",
"9  c #4073B9",
"0  c #4174BA",
"q  c #4275BB",
"w  c #4075BC",
"e  c #4176BD",
"r  c #4376BC",
"t  c #4277BE",
"y  c #4477BD",
"u  c #4378BF",
"i  c #4578BE",
"p  c #4679BF",
"a  c #4479C0",
"s  c #457AC1",
"d  c #477AC0",
"f  c #477BC1",
"g  c #467BC2",
"h  c #477CC3",
"j  c #487BC1",
"k  c #497CC2",
"l  c #4A7DC3",
"z  c #487DC4",
"x  c #497EC5",
"c  c #4B7EC4",
"v  c #4A7FC6",
"b  c #4B80C7",
"n  c #4E82C6",
"m  c #4C81C8",
"M  c #4D81C8",
"N  c #4D82C9",
"B  c #4E83CA",
"V  c #4F83CA",
"C  c #4F84CB",
"Z  c #5083C6",
"A  c #5184C8",
"S  c #5085CC",
"D  c #5186CD",
"F  c #5287CE",
"G  c #5487CC",
"H  c #5789CB",
"J  c #5388CF",
"K  c #5789CC",
"L  c #5888C8",
"P  c #5889CA",
"I  c #598ACB",
"U  c #5F8FCF",
"Y  c #5489D0",
"T  c #558AD1",
"R  c #568BD2",
"E  c #6592CF",
"W  c #6692CE",
"Q  c #6E99D2",
"!  c #749CD2",
"~  c #709BD4",
"^  c #779FD4",
"/  c #7AA0D4",
"(  c #7AA1D5",
")  c #8AACD9",
"_  c #8AACDB",
"`  c #8AADDB",
"'  c #91B0DB",
"]  c #93B2DC",
"[  c #93B3DE",
"{  c #9DB9DF",
"}  c #9FBBE1",
"|  c #9FBBE2",
" . c #AAC3E5",
".. c #B1C8E6",
"X. c #B6CBE8",
"o. c #C4D5EC",
"O. c #C5D6ED",
"+. c #C8D8ED",
"@. c #CEDCF0",
"#. c #D5E1F2",
"$. c #D8E3F2",
"%. c #E4ECF7",
"&. c #E7EEF7",
"*. c #E8EFF8",
"=. c #E9EFF8",
"-. c #EDF2F9",
";. c #EFF3FA",
":. c #F0F5FA",
">. c #F9FBFD",
",. c #FBFCFE",
"<. c #FCFDFE",
"1. c #FDFDFE",
"2. c #FEFEFF",
"3. c #FFFFFF",
"4. c None",
/* pixels */
"4.4.4., 9 0 0 r i y i i i l l g l l l l j 6 4.4.4.4.4.4.4.4.4.4.",
"4.4.; 2 6 9 0 0 0 r y i i i i l p l l l c j 4.4.4.4.4.4.4.4.4.4.",
"4.4.2 2 $ 4.4.4.4.4.4.4.4.4.4.4.4.4.4.4.4.4.4.4.4.4.4.4.4.4.4.4.",
"4.4.1 2 4.4.4.4.4.4.4.4.4.4.4.4.4.4.4.4.4.4.4.4.4.4.4.4.4.4.4.4.",
"4.4.1 1 4.4.4., 0 0 0 r 0 y i i i j j j j l l c g 6 4.4.4.4.4.4.",
"4.4.; , 4.4.* 6 6 0 0 0 0 i i i j i g j j l l l l j 4.4.4.4.4.4.",
"4.4.; , 4.4.2 2 $ 4.4.4.4.4.4.4.4.4.4.4.4.4.4.4.4.4.4.4.4.4.4.4.",
"4.4.; ; 4.4.1 2 4.4.4.4.4.4.4.4.4.4.4.4.4.4.4.4.4.4.4.4.4.4.4.4.",
"4.4.- ; 4.4.1 1 4.4.4.g N N B B F B F F F J T J T T T R J 4.4.4.",
"4.4.- - 4.4.; 1 4.4.i b b N N B N F B F F F F T T T T T T F 4.4.",
"4.4.$ - 4.4.; ; 4.4.x x b b Q [ G S F B F F F F J J T T R R 4.4.",
"4.4.$ - 4.4.; ; 4.4.x x x } 2.2.O.N N F B F F F J T T T T T 4.4.",
"4.4.$ $ 4.4.; ; 4.4.x z ^ 2.2.2.2.} N C S S F F F J T J T T 4.4.",
"4.4.$ $ 4.4.$ - 4.4.g x / 2.2.2.2.2.U B S B B F F F F T T T 4.4.",
"4.4.+ $ 4.4.- - 4.4.g g b -.2.2.2.:.J Z B F F B F F F J T J 4.4.",
"4.4.+ + 4.4.$ - 4.4.g g l ) 2.2.-.W b N N N N F B F F F F T 4.4.",
"4.4.O @ 4.4.$ $ 4.4.a a g g +.2.2.^ b N N N N S F S F F F F 4.4.",
"4.4.O O 4.4.$ $ 4.4.a a g g I -.2.*.I b b N N N N S C F F F 4.4.",
"4.4.o @ 4.4.O $ 4.4.a a i g g ~ 2.2.$.A b b N N N F C C F F 4.4.",
"4.4.4.o 4.4.@ O 4.4.r u a a a g ] 2.2.#.I b I ` I N B F B F 4.4.",
"4.4.4.4.4.4.@ @ 4.4.r a a a a a g { 2.2.-./ +.2.-.~ B B F B 4.4.",
"4.4.4.4.4.4.@ @ 4.4.8 r e a a a i g ] >.2.2.2.2.2.>.` N N F 4.4.",
"4.4.4.4.4.4.o @ 4.4.8 a a e a a g i g ! *.2.2.2.2.2.%.N N F 4.4.",
"4.4.4.4.4.4.4.o 4.4.8 8 8 a 8 a u g g g n ..2.2.2.2. .m N N 4.4.",
"4.4.4.4.4.4.4.4.4.4.8 r 8 r a e a a a a g g W o.:.X.N N b N 4.4.",
"4.4.4.4.4.4.4.4.4.4.7 8 8 8 e e 8 a a a g g g x x x x b N b 4.4.",
"4.4.4.4.4.4.4.4.4.4.> 7 8 e 8 a a 8 a a g g g g g x x x b g 4.4.",
"4.4.4.4.4.4.4.4.4.4.4., 8 8 e 8 8 a r a a r g g x g x x g 4.4.4.",
"4.4.4.4.4.4.4.4.4.4.4.4.4.8 8 8 8 8 & 4.4.4.4.4.4.4.4.4.4.4.4.4.",
"4.4.4.4.4.4.4.4.4.4.4.4.4.8 8 7 7 . 4.4.4.4.4.4.4.4.4.4.4.4.4.4.",
"4.4.4.4.4.4.4.4.4.4.4.4.4.6 8 & 4.4.4.4.4.4.4.4.4.4.4.4.4.4.4.4.",
"4.4.4.4.4.4.4.4.4.4.4.4.4.& . 4.4.4.4.4.4.4.4.4.4.4.4.4.4.4.4.4."
};
