/* XPM */
static char *iconjvoice__[] = {
/* columns rows colors chars-per-pixel */
"48 48 141 2",
"   c #0B2E60",
".  c #0F3365",
"X  c #0E376F",
"o  c #113B76",
"O  c #143F7B",
"+  c #14417E",
"@  c #3D416F",
"#  c #3D4270",
"$  c #374478",
"%  c #4C537F",
"&  c #154484",
"*  c #194685",
"=  c #1C4A8A",
"-  c #1C4F92",
";  c #1E5194",
":  c #1F549A",
">  c #204F8F",
",  c #374E87",
"<  c #3B4F87",
"1  c #3D538C",
"2  c #204F90",
"3  c #235292",
"4  c #285797",
"5  c #22579D",
"6  c #23589F",
"7  c #2B5A9B",
"8  c #3C5C99",
"9  c #265BA2",
"0  c #295EA5",
"q  c #2C60A7",
"w  c #2E63AA",
"e  c #3E62A1",
"r  c #3166AD",
"t  c #3368AF",
"y  c #3B6BAD",
"u  c #356AB1",
"i  c #3A6EB4",
"p  c #3D71B6",
"a  c #3E72B9",
"s  c #475384",
"d  c #505783",
"f  c #535C88",
"g  c #4A5F92",
"h  c #405E99",
"j  c #5F6287",
"k  c #43619D",
"l  c #48649D",
"z  c #64668A",
"x  c #777796",
"c  c #767898",
"v  c #7B7C9A",
"b  c #4565A3",
"n  c #516DA3",
"m  c #406DB1",
"M  c #4474B5",
"N  c #4C76B6",
"B  c #4175BB",
"V  c #4976BA",
"C  c #4578BF",
"Z  c #4B7BBC",
"A  c #527DB6",
"S  c #537EB9",
"D  c #747DA2",
"F  c #467AC1",
"G  c #4A7DC3",
"H  c #5681BB",
"J  c #5984BE",
"K  c #7981A3",
"L  c #778DB8",
"P  c #4D80C7",
"I  c #4E82C9",
"U  c #5382C1",
"Y  c #5D87C0",
"T  c #5D88C4",
"R  c #5186CD",
"E  c #5388CF",
"W  c #5F8BC8",
"Q  c #558AD1",
"!  c #598ED5",
"~  c #5B90D7",
"^  c #5E92D8",
"/  c #628CC5",
"(  c #658FC8",
")  c #6691C9",
"_  c #6B95CE",
"`  c #7596C7",
"'  c #7298CC",
"]  c #6291D1",
"[  c #6C97D2",
"{  c #6F99D2",
"}  c #6E9DDC",
"|  c #729CD3",
" . c #7CA3D7",
".. c #7BA5DF",
"X. c #83839F",
"o. c #8686A1",
"O. c #8B8BA5",
"+. c #9191AB",
"@. c #A3A3B7",
"#. c #A6A6BA",
"$. c #A9A9BD",
"%. c #8FA8CF",
"&. c #80A2D1",
"*. c #99B2D6",
"=. c #94B3DE",
"-. c #9BB6DD",
";. c #ADADC0",
":. c #A3ADC8",
">. c #B3B3C4",
",. c #BFBFCE",
"<. c #A1B8D9",
"1. c #A4BFE3",
"2. c #ABC1DF",
"3. c #BCC9DF",
"4. c #A7C0E0",
"5. c #A9C1E0",
"6. c #BACCE5",
"7. c #B8CDEA",
"8. c #BFD2EB",
"9. c #C6C7D5",
"0. c #C8C8D4",
"q. c #C3CADC",
"w. c #CDCDD9",
"e. c #D2D2DD",
"r. c #C9D1E1",
"t. c #C3D3EB",
"y. c #CFD9E9",
"u. c #D3D6E2",
"i. c #DCDDE5",
"p. c #D3DBEA",
"a. c #DBDFE9",
"s. c #DEE2EB",
"d. c #E1E1E7",
"f. c #E3E4EB",
"g. c #E9E9EE",
"h. c #ECEDF2",
"j. c #EFF0F5",
"k. c #F4F4F6",
"l. c #F6F6F8",
"z. c #FDFDFE",
"x. c None",
/* pixels */
"x.x.x.x.x.A A A A Z H A H H H H H H H H H J J J J J J T J J T x.x.x.x.x.x.x.x.x.x.x.x.x.x.x.x.x.",
"x.x.x.x.A y q 0 q 0 q q q q w w w w w w r r r r r r r u u r u Z x.x.x.x.x.x.x.x.x.x.x.x.x.x.x.x.",
"x.x.x.x.y 9 0 0 0 0 0 q q q q q w w r w r r r r r r r r t u t u M x.x.x.x.x.x.x.x.x.x.x.x.x.x.x.",
"x.x.x.x.0 9 9 0 0 0 0 q q q q w w w w r w w r r r r r u t t t t i x.x.x.x.x.x.x.x.x.x.x.x.x.x.x.",
"x.x.x.x.9 0 9 9 0 0 y H Y / W / W W W W ( / Q / / W / ] ) ) ) ) ] ) ) ) ) x.x.x.x.x.x.x.x.x.x.x.",
"x.x.x.x.6 9 9 0 0 m A p u u u i u p i i p p i a a a a a a a a a B a a a F T x.x.x.x.x.x.x.x.x.x.",
"x.x.x.x.9 6 9 9 9 M u u u u u u u u p i i i a i p p i a a a a a B B a a B B U x.x.x.x.x.x.x.x.x.",
"x.x.x.x.6 9 9 9 5 u u u u i u i i i u i i i i a i i a a a a a a a a C a F a Z x.x.x.x.x.x.x.x.x.",
"x.x.x.x.6 6 6 9 ; r u u r u u u i i p p p p p p a a a a a a a F C C C C B C F x.x.x.x.x.x.x.x.x.",
"x.x.x.x.6 6 6 : = u u w u u Z ) _ _ ) _ _ _ _ _ [ [ [ [ [ [ { { ' | [ { { { | ......x.x.x.x.x.x.",
"x.x.x.x.5 6 : - = u w u u M T G C C F G G G G G P F F F P P P P G R G R G R E ~ ~ ^ } x.x.x.x.x.",
"x.x.x.x.6 6 ; & = r w u r S C C C C Z C G C G C P H P P H P P P G R G U R G E ] ~ ~ ~ [ x.x.x.x.",
"x.x.x.x.5 5 = = = u r r q Z C C C Z F F C Z G G C P Z P P P P F G R G G I I Q ~ ~ ~ ~ ^ x.x.x.x.",
"x.x.x.x.: ; = = = w r r 7 B B C C C C B < @ $ M G C P P F P P P G R G R I G ! ! ~ ! ~ ~ x.x.x.x.",
"x.x.x.x.: * * * = w r q 4 M B C B B m % X.$.+.d C Z P C P C C P G G R U G R ! ! ~ ! ! ~ x.x.x.x.",
"x.x.x.x.- * * = = r r 7 4 B B B B m z #.d.k.d.@.l F C P C P C P G G G G G R ! ! ! ~ ! ~ x.x.x.x.",
"x.x.x.x.= & & & = q 0 4 3 p B B B n ;.h.z.z.z.i.+.k F G F G G G G G U R G Q ! ! ! ! ! ! x.x.x.x.",
"x.x.x.x.& & = = = r 4 4 4 M B B B L e.z.z.z.z.z.e.v V F G G G Z G G G G G ! ! ! ! ! ! ! x.x.x.x.",
"x.x.x.x.& & & & = 0 3 4 3 B B B B ` e.z.z.z.z.z.k.>.N F F F F G G G G G E Q ! Q ! ! ! ! x.x.x.x.",
"x.x.x.x.& & & & * 4 3 3 3 M p B B U 9.z.z.z.z.z.z.9.W C G Z G G S G G G Q ! ! ! ! ! ! ! x.x.x.x.",
"x.x.x.x.& & & & * 4 3 3 4 p B B a B *.f.z.z.z.z.u.1.F F Z F G Z G G G R Q ! Q ! Q ! ! ! x.x.x.x.",
"x.x.x.x.& & & & * 3 3 4 3 p M a a B G q.k.z.z.f.%.Z C V F F F F F G G E Q Q Q Q ! Q ! Q x.x.x.x.",
"x.x.x.x.& + & & * 3 3 3 3 p M p B B B ' u.z.z.i.D Z C C C F F Z F F R R Q Q Q Q Q Q ! ! x.x.x.x.",
"x.x.x.x.& & & * * 3 3 3 3 i p B p B i B <.f.z.g.$.g C C C Z F F F P R Q E Q Q Q Q ! Q ! x.x.x.x.",
"x.x.x.x.& & & & * > 3 3 3 i p a B m B B Z 6.h.z.i.O.h F F C C V G R Q E Q Q Q Q Q Q ! Q x.x.x.x.",
"x.x.x.x.& & + & * 3 3 3 3 i p p p B i B B / r.l.l.e.v e C C C F I R R E Q R E Q Q Q Q ! x.x.x.x.",
"x.x.x.x.+ + & & * > > 3 3 y M p p p B i B m &.u.z.l.0.x 8 C C G R R R R R Q E Q Q Q Q Q x.x.x.x.",
"x.x.x.x.X & + + * > 3 3 > i i p p p i B a B M -.i.l.k.9.x h G R R < # < I R R Q Q Q Q Q x.x.x.x.",
"x.x.x.x.x.o + & * > > 2 2 i i p p p B i B m B B <.d.z.l.w.O.s N l o.#.O.d V E R Q E Q Q x.x.x.x.",
"x.x.x.x.x.x.    . 3 > 3 2 i i p i p i B i B B a Z 1.a.l.l.i.@.x +.e.k.i.$.z b Q R Q E Q x.x.x.x.",
"x.x.x.x.x.x.x.x.x.> 2 2 2 i i i p m i B B i B a C V 1.i.l.z.g.u.f.k.z.z.h.,.x b R Q Q E x.x.x.x.",
"x.x.x.x.x.x.x.x.x.> 2 2 2 y i i i i i i i a i a B G G =.y.j.z.z.z.z.z.z.z.k.9.D R E R Q x.x.x.x.",
"x.x.x.x.x.x.x.x.x.* > > 2 y i i a a u i i i F F I F I I } 8.s.z.z.z.z.z.z.z.g.:.E E Q Q x.x.x.x.",
"x.x.x.x.x.x.x.x.x.x.* 2 > u u i u u a i F G F F F I I F G R 1.p.g.z.z.z.z.z.i.=.I E I Q x.x.x.x.",
"x.x.x.x.x.x.x.x.x.x.x.o o y i i a a F F F F I I F I G G I I I ^ 7.p.j.z.z.f.7.E E R E R x.x.x.x.",
"x.x.x.x.x.x.x.x.x.x.x.x.x.B F F B F F F F F F F F F I G G G I I I  .8.y.y.8.] R I E I Q x.x.x.x.",
"x.x.x.x.x.x.x.x.x.x.x.x.x.B C F F F F F F F F F I F F I F I I I I I I ] } I R I R I R R x.x.x.x.",
"x.x.x.x.x.x.x.x.x.x.x.x.x.i B C B F F F F F F F I F I F I F F I P P I I I I I I I R R G x.x.x.x.",
"x.x.x.x.x.x.x.x.x.x.x.x.x.3 F C F F F F F F F F F F I F F I I F G P P I I I I I I R R 7 x.x.x.x.",
"x.x.x.x.x.x.x.x.x.x.x.x.x.x.= i B F F F F F F F F F F F F F F I P P P F I I I I I C 3 x.x.x.x.x.",
"x.x.x.x.x.x.x.x.x.x.x.x.x.x.x.O O O F F F C F F F C p * o o o o o o o o o o o o o o x.x.x.x.x.x.",
"x.x.x.x.x.x.x.x.x.x.x.x.x.x.x.x.x.x.B F C C F F F y O x.x.x.x.x.x.x.x.x.x.x.x.x.x.x.x.x.x.x.x.x.",
"x.x.x.x.x.x.x.x.x.x.x.x.x.x.x.x.x.x.C F C F F F 7 O x.x.x.x.x.x.x.x.x.x.x.x.x.x.x.x.x.x.x.x.x.x.",
"x.x.x.x.x.x.x.x.x.x.x.x.x.x.x.x.x.x.a B C B B ; o x.x.x.x.x.x.x.x.x.x.x.x.x.x.x.x.x.x.x.x.x.x.x.",
"x.x.x.x.x.x.x.x.x.x.x.x.x.x.x.x.x.x.B F C B = x.x.x.x.x.x.x.x.x.x.x.x.x.x.x.x.x.x.x.x.x.x.x.x.x.",
"x.x.x.x.x.x.x.x.x.x.x.x.x.x.x.x.x.x.F B i * x.x.x.x.x.x.x.x.x.x.x.x.x.x.x.x.x.x.x.x.x.x.x.x.x.x.",
"x.x.x.x.x.x.x.x.x.x.x.x.x.x.x.x.x.x.i y + x.x.x.x.x.x.x.x.x.x.x.x.x.x.x.x.x.x.x.x.x.x.x.x.x.x.x.",
"x.x.x.x.x.x.x.x.x.x.x.x.x.x.x.x.x.x.o o x.x.x.x.x.x.x.x.x.x.x.x.x.x.x.x.x.x.x.x.x.x.x.x.x.x.x.x."
};
